<?xml version="1.0" encoding="iso-8859-1"?>
<!-- Generator: Adobe Illustrator 18.0.0, SVG Export Plug-In . SVG Version: 6.00 Build 0)  -->
<!DOCTYPE svg PUBLIC "-//W3C//DTD SVG 1.1//EN" "http://www.w3.org/Graphics/SVG/1.1/DTD/svg11.dtd">
<svg version="1.1" id="Capa_1" xmlns="http://www.w3.org/2000/svg" xmlns:xlink="http://www.w3.org/1999/xlink" x="0px" y="0px"
	 viewBox="0 0 484.19 484.19" style="enable-background:new 0 0 484.19 484.19;" xml:space="preserve">
<g>
	<path d="M343.775,126.004c2.877-18.275,1.524-38.055-1.008-53.38c-5.428-32.827-18.455-55.935-18.455-55.935l-6.084,25.516
		l-0.596,2.51c-0.045-1.025-0.202-2.159-0.31-3.261c-1.455-13.918-7.695-32.772-7.695-32.772
		c-14.014,6.67-37.002,6.005-37.002,6.005c6.363-4.676,22.988-9.337,22.988-9.337c-41.412-13.05-67.889,0.603-80.776,10.878
		c-2.783,2.229-4.942,4.269-6.476,5.872l4.724-5.45l9.806-11.3c-19.769,1.939-34.172,15.296-42.931,26.204
		c-6.317,7.867-9.79,14.498-9.79,14.498l1.689-8.688l3.644-18.673c-13.591,10.869-21.785,26.672-26.806,42.797
		c-7.856,25.259-8.439,55.133-8.096,64.435c-7.875,3.256-13.805,10.606-16.396,20.386c-2.455,9.329-1.814,20.206,1.814,30.614
		c5.724,16.436,17.905,28.518,31.169,31.224c10.447,22.427,26.523,45.12,46.59,58.756l1.908,7.882
		c2.564,10.581,12.041,18.033,22.927,18.033h28.964c10.885,0,20.363-7.452,22.929-18.033l2.33-9.633
		c18.907-13.763,34.11-35.439,44.134-56.928c13.061-2.558,25.445-14.709,31.232-31.302
		C365.943,154.607,359.599,132.646,343.775,126.004z M266.228,247.661c-2.159,1.688-5.053,2.086-7.586,1.055
		c-2.533-1.033-4.316-3.339-4.678-6.052l-1.813-13.614c-0.189-1.315-1.299-2.292-2.627-2.292h-12.855
		c-1.33,0-2.441,0.977-2.629,2.292l-1.814,13.614c-0.357,2.713-2.143,5.019-4.676,6.052c-2.533,1.031-5.426,0.632-7.584-1.055
		l-12.152-9.502l4.959-13.958c3.377-9.492,12.354-15.834,22.426-15.834h15.904c10.072,0,19.05,6.342,22.428,15.834l4.941,13.888
		L266.228,247.661z M343.08,171.661c-4.772,13.669-14.467,21.042-21.348,21.042c-3.863,0.008-6.209,1.847-7.492,4.809
		c-6.036,13.85-14.498,27.956-24.633,39.67l0.549-2.246c0.078-0.32-0.031-0.625-0.063-0.939c0.516-2.697,0.875-5.441,0.875-8.279
		c0-25.337-21.426-45.887-47.872-45.887c-26.415,0-47.841,20.55-47.841,45.887c0,2.814,0.344,5.536,0.846,8.203
		c-0.049,0.336-0.142,0.673-0.063,1.015l1.313,5.419c-11.4-12.245-20.815-27.736-27.401-42.844
		c-1.267-2.924-4.487-4.809-7.677-4.809c-6.694,0-16.375-7.373-21.131-21.042c-2.549-7.334-3.08-15.084-1.453-21.263
		c0.797-2.979,2.799-8.219,7.459-9.836c0.502-0.173,1.486-0.273,1.972-0.322c3.956-0.383,7.037-3.611,7.224-7.585
		c0.174-3.698,0.616-7.268,1.503-10.767c11.936-47.111,52.986-50.477,52.986-50.477c-4.741,12.507-19.315,24.687-19.315,24.687
		c39.364-16.015,51.627-33.367,51.627-33.367c26.195,36.369,62.291,52.15,83.139,58.617c0.61,3.738,1.209,7.443,1.563,11.306
		c0.363,3.961,3.269,7.202,7.226,7.585c0.485,0.048,1.471,0.149,1.986,0.322C344.142,143.033,348.365,156.419,343.08,171.661z"/>
	<path d="M377.015,271.181l-59.068-17.61c-3.815,4.771-7.82,9.133-11.934,13.145l22.584,6.741
		c-12.668,28.088-46.324,48.28-86.188,48.28c-39.945,0-73.678-20.262-86.283-48.437l22.066-6.583
		c-4.129-4.012-8.116-8.374-11.949-13.153l-59.069,17.618c-13.229,3.941-22.286,16.093-22.286,29.887v25.915
		c0,86.822,70.378,157.207,157.207,157.207c86.83,0,157.207-70.385,157.207-157.207v-25.915
		C399.302,287.274,390.248,275.123,377.015,271.181z"/>
</g>
<g>
</g>
<g>
</g>
<g>
</g>
<g>
</g>
<g>
</g>
<g>
</g>
<g>
</g>
<g>
</g>
<g>
</g>
<g>
</g>
<g>
</g>
<g>
</g>
<g>
</g>
<g>
</g>
<g>
</g>
</svg>
